<mxfile host="app.diagrams.net" modified="2023-05-25T06:27:53.900Z" agent="Mozilla/5.0 (Windows NT 10.0; Win64; x64) AppleWebKit/537.36 (KHTML, like Gecko) Chrome/113.0.0.0 Safari/537.36" etag="tWA1CLScs2R-3yqFlCte" version="21.3.2" type="github">
  <diagram name="第 1 页" id="BSuqHgKzUaAy_pbXCrT9">
    <mxGraphModel dx="658" dy="428" grid="1" gridSize="10" guides="1" tooltips="1" connect="1" arrows="1" fold="1" page="1" pageScale="1" pageWidth="827" pageHeight="1169" math="0" shadow="0">
      <root>
        <mxCell id="0" />
        <mxCell id="1" parent="0" />
        <mxCell id="AqI7v_joiOzYc2P0wQW1-4" value="" style="rounded=1;whiteSpace=wrap;html=1;fillColor=#FFB570;strokeColor=none;" vertex="1" parent="1">
          <mxGeometry x="350" y="110" width="90" height="100" as="geometry" />
        </mxCell>
        <mxCell id="AqI7v_joiOzYc2P0wQW1-2" value="" style="rounded=1;whiteSpace=wrap;html=1;fillColor=#FFE5A8;strokeColor=none;" vertex="1" parent="1">
          <mxGeometry x="190" y="110" width="90" height="50" as="geometry" />
        </mxCell>
        <mxCell id="AqI7v_joiOzYc2P0wQW1-3" value="" style="rounded=1;whiteSpace=wrap;html=1;fillColor=#FFCB70;strokeColor=none;" vertex="1" parent="1">
          <mxGeometry x="190" y="160" width="90" height="50" as="geometry" />
        </mxCell>
        <mxCell id="AqI7v_joiOzYc2P0wQW1-5" value="&lt;font style=&quot;font-size: 18px;&quot;&gt;D&lt;/font&gt;" style="text;html=1;strokeColor=none;fillColor=none;align=center;verticalAlign=middle;whiteSpace=wrap;rounded=0;" vertex="1" parent="1">
          <mxGeometry x="230" y="120" width="60" height="30" as="geometry" />
        </mxCell>
        <mxCell id="AqI7v_joiOzYc2P0wQW1-6" value="&lt;font style=&quot;font-size: 18px;&quot;&gt;E&lt;/font&gt;" style="text;html=1;strokeColor=none;fillColor=none;align=center;verticalAlign=middle;whiteSpace=wrap;rounded=0;" vertex="1" parent="1">
          <mxGeometry x="230" y="170" width="60" height="30" as="geometry" />
        </mxCell>
        <mxCell id="AqI7v_joiOzYc2P0wQW1-7" value="&lt;font style=&quot;font-size: 18px;&quot;&gt;F&lt;/font&gt;" style="text;html=1;strokeColor=none;fillColor=none;align=center;verticalAlign=middle;whiteSpace=wrap;rounded=0;" vertex="1" parent="1">
          <mxGeometry x="390" y="145" width="60" height="30" as="geometry" />
        </mxCell>
        <mxCell id="AqI7v_joiOzYc2P0wQW1-10" value="" style="shape=flexArrow;endArrow=classic;html=1;rounded=0;endWidth=10.344827586206897;endSize=6;strokeColor=#4D4D4D;" edge="1" parent="1">
          <mxGeometry width="50" height="50" relative="1" as="geometry">
            <mxPoint x="300" y="160" as="sourcePoint" />
            <mxPoint x="340" y="160" as="targetPoint" />
          </mxGeometry>
        </mxCell>
      </root>
    </mxGraphModel>
  </diagram>
</mxfile>
